<svg width="133" height="40" viewBox="0 0 133 40" fill="none" xmlns="http://www.w3.org/2000/svg">
<g clip-path="url(#clip0_19_167)">
<path d="M92.8616 0.144156H92.6613L112.801 20.0442L132.94 0.144156H92.8616Z" fill="#66CCFF"/>
<path d="M132.94 0.342213V0.144155L112.804 20.0473L132.94 39.9505V0.342213Z" fill="#66CC33"/>
<path d="M92.6646 39.9505H132.937L112.801 20.0473" fill="#FF4F22"/>
<path d="M25.7967 13.4327V19.3212C25.7967 19.5604 25.6917 19.7777 25.482 19.9738C25.2723 20.1699 25.0433 20.277 24.7948 20.2949C25.4624 20.462 25.7967 20.7865 25.7967 21.2684V27.1571C25.7967 28.1395 25.338 28.9576 24.4211 29.6113C23.9738 29.9358 23.44 30.098 22.8194 30.098H3.95715V22.2753H0L1.98869 18.3392H3.95715V10.4918H22.8194C23.9281 10.4918 24.7769 10.9652 25.3655 11.9117C25.6527 12.3713 25.7967 12.8784 25.7967 13.4327V13.4327ZM21.8395 15.4006C21.8395 15.1171 21.7444 14.8843 21.555 14.7017C21.3652 14.5191 21.1265 14.4279 20.8385 14.4279H7.91431V18.3392H20.873C21.517 18.3392 21.8395 18.0128 21.8395 17.3598V15.4006V15.4006ZM7.91431 26.1619H20.873C21.517 26.1619 21.8395 25.8397 21.8395 25.1952V23.2485C21.8395 22.5998 21.5057 22.2753 20.8385 22.2753H7.91431V26.1619Z" fill="black"/>
<path d="M46.4938 30.098H30.6405C29.0909 30.098 28.1615 29.6113 27.8516 28.6378C27.7193 28.2185 27.6531 27.7249 27.6531 27.1571V13.4327C27.6531 12.1934 28.0061 11.3528 28.7129 10.911C29.1504 10.6319 29.793 10.4918 30.6405 10.4918H46.4938C47.5646 10.4918 48.3281 10.7185 48.784 11.1715C49.2394 11.6244 49.4676 12.3782 49.4676 13.4327V27.1571C49.4676 28.401 49.1142 29.2416 48.4078 29.6786C47.9656 29.9583 47.3278 30.098 46.4938 30.098V30.098ZM44.5114 26.1619C45.1774 26.1619 45.5104 25.8381 45.5104 25.1898V15.3999C45.5104 14.752 45.1774 14.4279 44.5114 14.4279H32.5956C31.9386 14.4279 31.6102 14.752 31.6102 15.3999V25.1898C31.6102 25.8381 31.9386 26.1619 32.5956 26.1619H44.5114Z" fill="black"/>
<path d="M51.3877 30.098V10.4918H70.2285C71.3359 10.4918 72.1836 10.9652 72.7712 11.9117C73.0586 12.3713 73.2021 12.8784 73.2021 13.4327V19.3212C73.2021 19.5604 73.0996 19.7777 72.8945 19.9738C72.6894 20.1699 72.4656 20.277 72.2223 20.2949C72.8754 20.462 73.2021 20.7865 73.2021 21.2684V27.1571C73.2021 28.1395 72.7438 28.9576 71.8281 29.6113C71.3812 29.9358 70.8483 30.098 70.2285 30.098H51.3877V30.098ZM69.245 15.4006C69.245 15.1171 69.1504 14.8843 68.961 14.7017C68.7716 14.5191 68.5332 14.4279 68.2461 14.4279H55.3448V18.3392H68.28C68.9234 18.3392 69.245 18.0128 69.245 17.3598V15.4006V15.4006ZM55.3448 26.1619H68.28C68.9234 26.1619 69.245 25.8397 69.245 25.1952V23.2485C69.245 22.5998 68.912 22.2753 68.2461 22.2753H55.3448V26.1619Z" fill="black"/>
<path d="M93.9495 30.098H78.0961C76.5466 30.098 75.6172 29.6113 75.307 28.6378C75.1749 28.2185 75.1088 27.7249 75.1088 27.1571V13.4327C75.1088 12.1934 75.4617 11.3528 76.1683 10.911C76.6058 10.6319 77.2484 10.4918 78.0961 10.4918H93.9495C95.0201 10.4918 95.7835 10.7185 96.2395 11.1715C96.695 11.6244 96.9231 12.3782 96.9231 13.4327V27.1571C96.9231 28.401 96.5699 29.2416 95.8635 29.6786C95.4212 29.9583 94.7835 30.098 93.9495 30.098V30.098ZM91.967 26.1619C92.633 26.1619 92.9659 25.8381 92.9659 25.1898V15.3999C92.9659 14.752 92.633 14.4279 91.967 14.4279H80.0512C79.3943 14.4279 79.0659 14.752 79.0659 15.3999V25.1898C79.0659 25.8381 79.3943 26.1619 80.0512 26.1619H91.967Z" fill="black"/>
<path d="M106.166 29.8999H101.718L110.627 20.1154L101.684 10.2938H106.165L112.868 17.655L119.57 10.2938H124.018L115.109 20.1157L124.018 29.8999H119.536L112.851 22.558L106.166 29.8999Z" fill="black"/>
</g>
<defs>
<clipPath id="clip0_19_167">
<rect width="133" height="40" fill="white"/>
</clipPath>
</defs>
</svg>
